<svg width="176" height="32" viewBox="0 0 176 32" fill="none" xmlns="http://www.w3.org/2000/svg">
<path d="M64.5371 21.5244H66.4611V25.8764H71.6911V21.5244H73.6151V31.9971H71.6911V27.5811H66.4611V31.9971H64.5371V21.5244Z" fill="#3C3C3C"/>
<path d="M78.2812 21.5244H86.4094V23.171H80.2052V25.8939H85.6849V27.5404H80.2052V30.3506H86.4886V31.9971H78.2812V21.5244Z" fill="#3C3C3C"/>
<path d="M94.2077 21.5244H95.9795L100.765 31.9971H98.7437L97.6416 29.4895H92.4968L91.3765 31.9971H89.416L94.2077 21.5244ZM96.9415 27.8662L95.0601 23.7062L93.197 27.8662H96.9415Z" fill="#3C3C3C"/>
<path d="M104.254 21.5244H106.184V30.3215H111.944V31.9971H104.254V21.5244Z" fill="#3C3C3C"/>
<path d="M116.352 23.2291H112.875V21.5244H121.77V23.2291H118.294V31.9971H116.352V23.2291Z" fill="#3C3C3C"/>
<path d="M125.479 21.5244H127.402V25.8764H132.633V21.5244H134.557V31.9971H132.633V27.5811H127.402V31.9971H125.479V21.5244Z" fill="#3C3C3C"/>
<path fill-rule="evenodd" clip-rule="evenodd" d="M41.311 1.52164L56.788 27.6511C56.9855 27.9838 57.1123 28.3504 57.1613 28.7299C57.2103 29.1095 57.1806 29.4946 57.0737 29.8631C56.9668 30.2317 56.7849 30.5764 56.5384 30.8778C56.292 31.1791 55.9857 31.431 55.6373 31.6191C55.1787 31.8674 54.6605 31.9977 54.1334 31.9973H17.9492L36.0017 1.52164C36.198 1.18431 36.4626 0.887681 36.7801 0.649038C37.0976 0.410395 37.4615 0.234507 37.8508 0.131622C38.2401 0.0287361 38.647 0.000909885 39.0476 0.0497643C39.4483 0.0986186 39.8348 0.223177 40.1846 0.416182C40.656 0.682646 41.0448 1.06418 41.311 1.52164Z" fill="#00A3FF"/>
<path fill-rule="evenodd" clip-rule="evenodd" d="M21.1942 1.4573L27.4593 11.8311L15.3553 31.9969H3.04427C2.23688 31.9969 1.46256 31.6904 0.891646 31.1449C0.320735 30.5993 0 29.8594 0 29.0878C0.000552704 28.5861 0.136885 28.0931 0.395755 27.6566L15.8972 1.47476C16.1627 1.02706 16.5477 0.654668 17.013 0.395586C17.4783 0.136504 18.0072 0 18.5457 0C19.0842 0 19.6131 0.136504 20.0784 0.395586C20.5437 0.654668 20.9287 1.02706 21.1942 1.47476V1.4573Z" fill="#80D1FF"/>
<path d="M80.7935 17.335V5.1168L74.431 15.2986H73.2803L66.9725 5.19825V17.335H64.5371V0.578613H66.5889L73.8952 12.3546L81.1223 0.578613H83.1741V17.335H80.7935Z" fill="#3C3C3C"/>
<path d="M90.184 16.4099C88.7956 15.6988 87.6391 14.6359 86.8414 13.3379C86.0254 12.0108 85.6043 10.4959 85.6237 8.95683C85.6043 7.41773 86.0254 5.90283 86.8414 4.57574C87.6407 3.27744 88.7967 2.21303 90.184 1.49792C91.6584 0.765614 93.2957 0.383301 94.9574 0.383301C96.6191 0.383301 98.2564 0.765614 99.7308 1.49792C101.114 2.20914 102.266 3.2698 103.061 4.56411C103.878 5.89516 104.299 7.41398 104.279 8.95683C104.299 10.4997 103.878 12.0185 103.061 13.3496C102.266 14.6423 101.114 15.701 99.7308 16.4099C98.2564 17.1422 96.6191 17.5245 94.9574 17.5245C93.2957 17.5245 91.6584 17.1422 90.184 16.4099ZM98.4401 14.5423C99.4582 13.9926 100.3 13.188 100.875 12.215C101.472 11.2121 101.779 10.0755 101.764 8.92192C101.779 7.76832 101.472 6.63178 100.875 5.62883C100.3 4.65586 99.4582 3.85123 98.4401 3.30156C97.3789 2.75555 96.1865 2.48474 94.9818 2.5161C93.7605 2.50115 92.5562 2.78986 91.4869 3.35392C90.4682 3.90289 89.626 4.70769 89.0515 5.6812C88.4549 6.68414 88.1481 7.82068 88.1626 8.97429C88.1481 10.1279 88.4549 11.2644 89.0515 12.2674C89.626 13.2409 90.4682 14.0457 91.4869 14.5947C92.5596 15.1466 93.7638 15.4232 94.9818 15.3976C96.1931 15.4076 97.3859 15.1126 98.4401 14.5423Z" fill="#3C3C3C"/>
<path d="M106.721 0.578667H114.106C115.817 0.54623 117.51 0.907418 119.044 1.63176C120.429 2.29177 121.587 3.31753 122.38 4.58739C123.199 5.90935 123.62 7.42113 123.598 8.95685C123.619 10.4925 123.198 12.004 122.38 13.3263C121.588 14.5983 120.43 15.6262 119.044 16.2878C117.51 17.0121 115.817 17.3733 114.106 17.3408H106.721V0.578667ZM113.96 15.2521C115.256 15.2794 116.541 15.0079 117.704 14.4608C118.741 13.9693 119.606 13.2014 120.195 12.2499C120.792 11.2478 121.095 10.11 121.071 8.95685C121.095 7.80371 120.792 6.66591 120.195 5.66376C119.606 4.71229 118.741 3.94435 117.704 3.45285C116.541 2.90575 115.256 2.63435 113.96 2.66158H109.223V15.2521H113.96Z" fill="#3C3C3C"/>
<path d="M139.38 15.2521V17.335H126.643V0.578613H139.021V2.66152H129.163V7.80479H137.955V9.84116H129.163V15.2521H139.38Z" fill="#3C3C3C"/>
<path d="M154.412 17.335L150.625 12.215C150.162 12.2499 149.791 12.2673 149.523 12.2673H145.194V17.335H142.686V0.578613H149.523C151.792 0.578613 153.58 1.09643 154.887 2.13207C155.532 2.65333 156.043 3.30866 156.382 4.04786C156.72 4.78707 156.878 5.59056 156.841 6.39679C156.891 7.57646 156.55 8.74109 155.867 9.72479C155.161 10.66 154.16 11.3552 153.012 11.7088L157.17 17.335H154.412ZM153.085 9.21861C153.5 8.87345 153.826 8.44123 154.037 7.95575C154.248 7.47027 154.339 6.94468 154.302 6.42007C154.34 5.89707 154.249 5.37292 154.038 4.88917C153.827 4.40543 153.5 3.97539 153.085 3.63316C152.021 2.9155 150.73 2.57215 149.432 2.66152H145.17V10.2252H149.432C150.735 10.3074 152.027 9.9513 153.085 9.21861Z" fill="#3C3C3C"/>
<path d="M175.351 0.578613V17.335H173.299L162.778 4.83752V17.335H160.27V0.578613H162.327L172.848 13.0761V0.578613H175.351Z" fill="#3C3C3C"/>
</svg>
